<?xml version="1.0" encoding="utf-8"?>
<!-- Generator: Adobe Illustrator 26.5.2, SVG Export Plug-In . SVG Version: 6.00 Build 0)  -->
<svg version="1.1" id="Layer_1" xmlns="http://www.w3.org/2000/svg" xmlns:xlink="http://www.w3.org/1999/xlink" x="0px" y="0px"
	 viewBox="0 0 4270.56 1278.28" style="enable-background:new 0 0 4270.56 1278.28;" xml:space="preserve">
<style type="text/css">
	.st0{fill:#333333;}
</style>
<g>
	<path class="st0" d="M880.11,164.01L648.07,435.27c2.5,1.93,4.97,3.87,7.36,5.9l285.04-259.98c5.26,27.35,9,55.48,11.12,84.23
		L678.97,464.81c2.12,2.53,4.15,5.13,6.13,7.76L953.62,323c-0.01,2.74,0.01,5.48-0.03,8.23c-0.28,20.69-1.41,41.11-3.31,61.22
		L701.95,499.35c1.58,3.07,3.07,6.18,4.48,9.33l237.85-69.17c-3.1,19.35-6.93,38.35-11.47,56.94l-216.42,40.77
		c0.89,3.51,1.69,7.04,2.36,10.62l203.33-12.33c-5.05,16.48-10.66,32.6-16.8,48.3l-183.62-4.92c0.01,1.14,0.08,2.27,0.07,3.41
		c-0.04,2.74-0.19,5.45-0.35,8.16l169.59,27.15c-6.53,14.25-13.53,28.08-20.94,41.51l-153.27-37.9c-0.96,3.92-2.02,7.8-3.23,11.61
		l139.45,55.29c-7.89,12.57-16.19,24.7-24.85,36.37l-126.62-62.99c-1.96,3.74-4.09,7.4-6.31,11l112.56,77.77
		c-9.55,11.35-19.46,22.18-29.74,32.43l-102.45-83.86c-2.94,3.3-5.96,6.54-9.13,9.64l87.16,96.92
		c-11.46,9.93-23.29,19.19-35.46,27.74l-74.6-103.85c22.89-102.73-23.86-210.63-51.99-260.4l2.6-3.94l191.05-291.76
		c-81.95,3.24-178.8-5.16-277.86-40.85c-121.3-43.7-239.9-46.68-331.9-37.43l242.32,370.05l4.45,6.75
		c38.38,58.26,36.75,131.71-4.19,188.64l-5.3,7.37c-0.03-0.02-0.06-0.04-0.08-0.05L293.75,833.13c-12.16-8.55-24-17.81-35.46-27.74
		l87.16-96.92c-3.17-3.11-6.19-6.34-9.13-9.65l-102.45,83.86c-10.27-10.25-20.19-21.08-29.74-32.43l112.56-77.77
		c-2.22-3.6-4.34-7.26-6.31-11l-126.62,62.99c-8.66-11.67-16.96-23.79-24.85-36.37l139.45-55.28c-1.22-3.82-2.28-7.7-3.23-11.61
		l-153.27,37.9c-7.41-13.43-14.41-27.26-20.94-41.51l169.59-27.15c-0.16-2.71-0.31-5.42-0.35-8.16c-0.02-1.14,0.06-2.27,0.07-3.41
		l-183.62,4.92c-6.15-15.7-11.75-31.82-16.8-48.3l203.33,12.33c0.67-3.58,1.47-7.11,2.36-10.62L79.07,496.45
		c-4.54-18.59-8.37-37.59-11.47-56.94l237.85,69.17c1.41-3.15,2.9-6.26,4.48-9.33L61.61,392.44c-1.9-20.11-3.04-40.52-3.31-61.22
		c-0.04-2.75-0.02-5.49-0.03-8.23l268.51,149.57c1.98-2.63,4.01-5.23,6.13-7.76L60.29,265.42c2.12-28.75,5.86-56.87,11.12-84.23
		l285.04,259.98c2.39-2.03,4.87-3.98,7.36-5.9L84.62,108.9C31.83,119.96,0,131.95,0,131.95v0v704.39c0,4.83,0.18,10.42,0.65,16.65h0
		c10.82-1.97,21.84-3.29,33-3.89l19.06,42.87c6.83,0.16,13.67,0.65,20.6,1.47c2.4,0.29,4.75,0.67,7.1,1.03l26.32-38.89
		c20.71,4.84,40.39,12.05,58.72,21.36l-4.94,46.74c7.96,4.85,15.6,10.19,22.78,16l42.21-20.47c15.24,14.31,28.71,30.4,40.09,47.91
		l-27.62,37.97c4.46,8.12,8.44,16.52,11.82,25.19l46.78,3.37c5.99,19.74,9.62,40.36,10.73,61.56l-42.85,19.05
		c-0.18,6.84-0.63,13.71-1.45,20.61c-0.29,2.39-0.67,4.71-1.06,7.09l38.89,26.34c-2.49,10.6-5.6,20.92-9.28,30.94v0
		c47.96,23.62,103.7,45.85,168.53,65.77l0-0.02l-2.95-31.08h-4.77c-6.31,0-11.79-5.15-12.24-11.57l-0.4-5.67
		c-0.46-6.59,4.44-12.01,10.95-12.01h3.68l-2.6-27.43c-0.14-1.47,1.02-2.74,2.49-2.74h103.43c1.48,0,2.63,1.27,2.49,2.74l-2.6,27.43
		h3.68c6.51,0,11.41,5.41,10.95,12.01l-0.4,5.67c-0.45,6.43-5.93,11.57-12.24,11.57h-4.77l-2.95,31.08l-0.01,0.02
		c64.83-19.91,120.57-42.15,168.54-65.77l0,0c-3.68-10.02-6.8-20.34-9.28-30.94l38.89-26.34c-0.4-2.37-0.77-4.7-1.06-7.09
		c-0.82-6.9-1.27-13.77-1.45-20.61l-42.85-19.05c1.1-21.21,4.73-41.82,10.73-61.56l46.78-3.37c3.38-8.67,7.36-17.07,11.82-25.19
		l-27.62-37.97c11.37-17.51,24.84-33.6,40.09-47.91l42.21,20.47c7.18-5.81,14.83-11.15,22.78-16l-4.94-46.74
		c18.33-9.31,38.01-16.52,58.72-21.36l26.32,38.89c2.35-0.36,4.69-0.74,7.1-1.03c6.93-0.82,13.77-1.31,20.6-1.47l19.06-42.87
		c11.16,0.6,22.18,1.91,33,3.89c0.46-6.23,0.65-11.82,0.65-16.65V131.95C1011.88,131.95,960.61,151.63,880.11,164.01z
		 M596.88,769.64c-11.83,23.09-26.69,38.98-41.03,54.31c-19.93,21.3-40.48,43.28-53.1,84.89c-11.33,37.37-12.52,78.44-3.61,122.04
		c0.15,0.72-0.15,1.45-0.74,1.82c-0.24,0.14-0.5,0.22-0.76,0.22c-0.38,0-0.76-0.15-1.06-0.45c-46.42-46.99-69.12-93.26-67.3-137.52
		c2.01-49.12,32.94-81.76,65.81-116.45c32.89-34.7,67.02-70.73,80.83-128.41c13.12-54.81,4.42-116.86-26.12-184.54
		c-0.34-0.76-0.18-1.77,0.42-2.3c0.6-0.52,1.49-0.48,2.06,0.07C553.64,464.64,666.15,634.46,596.88,769.64z M568.23,938.49
		c3.28,16.36,9.17,29.11,15.38,42.58c8.28,17.94,18.7,36.75,20.1,74.15h-76.7c-2.43-9.3-4.47-18.71-6.05-28.2
		c-3.51-21.1-10.85-65.17,3.27-111.53c11.11-36.5,28.28-54.71,48.2-75.86c4.45-4.73,9.04-9.61,13.66-14.83
		c0.55-0.61,1.42-0.7,2.05-0.19c0.63,0.51,0.82,1.45,0.45,2.2C568.39,867.72,561.57,905.28,568.23,938.49z M414.3,958.36
		c-0.16-1.12,0.47-2.2,1.47-2.51c1-0.3,2.06,0.25,2.47,1.29c11.49,29.05,41.15,67.28,69.88,96.59c0.53,0.54,0.18,1.49-0.55,1.49
		l-84.75,0c-0.43,0-0.68-0.51-0.46-0.91C429.55,1004.98,414.39,958.99,414.3,958.36z M436.06,708.51
		c11.3-19.37,22-37.71,29.74-57.16c30.59-76.86,12.28-193.81-53.44-313.75c-6.06,1.18-25.78,9.06-38.3-20.75
		c-0.24-0.56-0.2-1.23,0.09-1.75c0.29-0.52,0.8-0.84,1.35-0.84h0h0c0.6,0,41.19-0.77,79.32-40.53c27.99-29.2,55-27.76,78.84-26.49
		c10.33,0.55,20.09,1.07,29.37-0.81c3.82-0.77,7.56-1.61,11.21-2.43c26.28-5.9,48.98-10.99,62.97,19.26
		c0.27,0.58,0.24,1.27-0.06,1.82c-0.31,0.55-0.65,0.84-1.43,0.86c-0.77-0.03-1.55-0.04-2.33-0.04
		c-51.13,0-105.89,62.54-115.69,132.5c-5.02,35.81,4.73,60.3,11.18,76.47c28.46,62.89,36.79,120.04,24.92,169.91
		c-12.43,52.18-44.64,86.24-75.69,119.06c-33.99,35.93-68.97,72.91-71.25,129.95c-0.33,8.37,0.88,17.67,1.68,23.82
		c0.93,7.17,1.16,8.88-0.79,9.24c-0.07,0.01-0.15,0.02-0.22,0.02c-0.39,0-0.87-0.17-1.16-0.41c-3.11-2.56-13.07-45.21-15.53-69.55
		C384.74,796.48,410.77,751.87,436.06,708.51z M633.35,1089.54c-11.97,25.75-36.62,47.29-61.22,61.51
		c-3.55,2.05-7.56,3.18-11.66,3.18H449.87c-2.88,0-5.72-0.69-8.23-2.1c-25.21-14.19-50.82-36.16-63.1-62.56
		c-2.63-5.66,1.66-12.12,7.9-12.12c43.27,0,195.81,0,239.03,0C631.69,1077.45,635.97,1083.89,633.35,1089.54z"/>
	<g>
		<path class="st0" d="M958.83,936.48c-95.14,3.1-169.99,83.02-166.89,178.13c0.46,14.17,2.66,27.88,6.33,40.96l0,0
			c114.09-72.88,168.02-152.9,192.98-217.07C980.71,936.86,969.88,936.12,958.83,936.48z"/>
		<path class="st0" d="M213.6,1155.58c3.67-13.08,5.87-26.79,6.33-40.96c3.1-95.12-71.75-175.03-166.89-178.13
			c-11.05-0.36-21.88,0.37-32.42,2.03h0C45.58,1002.67,99.51,1082.7,213.6,1155.58L213.6,1155.58z"/>
	</g>
	<path class="st0" d="M1011.64,35.36l-8.91,3.45c-2.36,0.91-238.54,96.31-486.85,6.85C274.89-41.18,47.71,19.61,0.24,35.66v52.1
		l8.63-2.8c2.4-0.9,242.56-88.77,490.28,0.49c89.97,32.42,177.66,43.25,254.68,43.25c129.15,0,228.23-30.43,257.81-40.63V35.36z"/>
	<path class="st0" d="M505.94,1278.28"/>
	<path class="st0" d="M561.23,1204.65h-3.68l2.6-27.43c0.14-1.47-1.02-2.74-2.49-2.74H454.23c-1.48,0-2.63,1.27-2.49,2.74l2.6,27.43
		h-3.68c-6.51,0-11.41,5.41-10.95,12.01l0.4,5.67c0.45,6.43,5.93,11.57,12.24,11.57h4.77l2.95,31.08c14.83,4.55,30.09,9,45.88,13.3
		c15.79-4.3,31.05-8.74,45.88-13.3l2.95-31.08h4.77c6.31,0,11.79-5.15,12.24-11.57l0.4-5.67
		C572.64,1210.07,567.74,1204.65,561.23,1204.65z"/>
	<g>
		<path class="st0" d="M3496.54,680.19c-23.76,0-44.35-15.31-44.35-36.96c0-20.07,15.31-30.63,29.57-30.63
			c25.34,0,26.4,26.93,40.66,26.93c13.73,0,25.75-14.49,45.28-62.01l-96.63-219.67c-4.75-11.09-7.4-11.61-28.51-12.14v-23.23h132.53
			v23.23c-25.87,0.53-31.68,1.05-31.68,7.39c0,3.17,1.05,6.87,2.64,10.56l53.33,135.18h1.59l56.49-135.18
			c1.59-3.69,2.64-7.39,2.64-10.56c0-6.33-5.81-6.86-31.69-7.39v-23.23h92.41v23.23c-21.13,0.53-23.23,1.05-27.99,12.14
			l-97.02,225.71C3574.69,633.2,3543.01,680.19,3496.54,680.19z"/>
		<path class="st0" d="M1608.83,863.92h-23.23c-18.48-66.01-24.29-90.3-74.45-90.3h-77.62v130.42h27.46
			c46.47,0,48.58-3.16,54.39-53.86h22.7v134.12h-20.59c-6.34-51.22-10.03-53.86-56.5-53.86h-27.46v137.81h70.76
			c59.67,0,78.68-13.72,101.91-98.74h24.29l-11.09,125.67h-302.04v-24.29c40.13,0,44.88-2.64,44.88-14.78V785.77
			c0-12.15-4.75-14.78-44.88-14.78V746.7h286.72L1608.83,863.92z"/>
		<path class="st0" d="M1806.03,1059.83c-24.29,25.34-54.39,40.66-84.49,40.66c-36.96,0-62.84-23.76-62.84-57.56
			c0-49.11,49.11-77.09,144.68-102.96v-28.51c0-29.04-13.2-43.83-40.13-43.83c-19.01,0-36.43,8.98-36.43,22.17
			c0,5.29,3.7,11.09,3.7,19.54c0,16.89-12.14,30.1-31.68,30.1c-16.9,0-32.21-11.62-32.21-32.74c0-38.55,56.5-68.12,116.17-68.12
			c52.8,0,86.07,23.23,86.07,72.34v133.6c0,13.72,6.86,19.54,14.78,19.54c7.92,0,15.32-3.17,23.76-11.62l12.14,16.9
			c-15.31,17.95-36.43,31.15-60.2,31.15C1833.49,1100.48,1815.01,1085.17,1806.03,1059.83z M1724.19,1027.09
			c0,22.71,14.26,34.85,33.27,34.85c16.37,0,30.63-7.39,45.94-20.59v-76.57C1756.93,976.93,1724.19,992.77,1724.19,1027.09z"/>
		<path class="st0" d="M1997.12,900.89c0,53.33,137.29,20.59,137.29,114.58c0,51.75-50.69,85.02-108.78,85.02
			c-36.96,0-66-10.03-88.71-23.23l-5.81-66.53h23.23c13.73,47.52,40.66,61.78,74.98,61.78c24.82,0,47.52-12.67,47.52-35.9
			c0-59.14-136.76-22.18-136.76-116.17c0-45.42,42.24-81.85,100.32-81.85c29.57,0,53.86,7.39,76.04,19.01v62.31h-21.12
			c-7.39-34.86-26.4-53.33-58.08-53.33C2014.54,866.57,1997.12,879.23,1997.12,900.89z"/>
		<path class="st0" d="M2256.68,1100.48c-42.24,0-73.4-24.29-73.4-63.89V872.9h-33.79v-29.04h33.79v-64.42l66.01-19.54v83.95h76.56
			v29.04h-76.56v152.07c0,24.29,13.2,36.44,34.85,36.44c16.37,0,29.57-7.92,44.88-24.29l16.9,19.54
			C2322.68,1084.12,2294.17,1100.48,2256.68,1100.48z"/>
		<path class="st0" d="M2736.08,1095.2h-288.3v-24.29c40.13,0,44.88-2.64,44.88-14.78V785.77c0-12.15-4.75-14.78-44.88-14.78V746.7
			h161.05v24.29c-39.6,0-44.88,2.64-44.88,14.78v282.49h57.02c59.67,0,79.21-13.72,101.92-98.74h24.29L2736.08,1095.2z"/>
		<path class="st0" d="M2898.43,838.58c70.23,0,127.26,53.86,127.26,130.95s-57.03,130.95-127.26,130.95
			c-69.7,0-126.73-53.86-126.73-130.95S2828.73,838.58,2898.43,838.58z M2898.43,868.15c-36.43,0-56.5,37.49-56.5,101.38
			c0,64.42,20.07,101.38,56.5,101.38c36.96,0,57.03-36.96,57.03-101.38C2955.46,905.64,2935.39,868.15,2898.43,868.15z"/>
		<path class="st0" d="M3159.67,1095.2h-126.2v-23.23c26.93,0,30.1-1.05,30.1-10.56V907.22c0-11.09-3.16-14.26-12.14-19.01
			l-20.59-10.03v-14.26l86.6-25.34h12.14v48.05c16.9-21.13,49.11-48.05,88.18-48.05c49.64,0,73.93,38.02,73.93,85.01v137.82
			c0,9.5,2.64,10.56,30.1,10.56v23.23h-126.2v-23.23c26.93,0,29.57-1.05,29.57-10.56V935.74c0-33.27-13.2-53.33-42.77-53.33
			c-20.06,0-39.6,10.56-52.8,24.29v154.71c0,9.5,3.17,10.56,30.1,10.56V1095.2z"/>
		<path class="st0" d="M3744.79,838.58c70.23,0,127.26,53.86,127.26,130.95s-57.03,130.95-127.26,130.95
			c-69.7,0-126.73-53.86-126.73-130.95S3675.09,838.58,3744.79,838.58z M3744.79,868.15c-36.43,0-56.5,37.49-56.5,101.38
			c0,64.42,20.07,101.38,56.5,101.38c36.97,0,57.03-36.96,57.03-101.38C3801.82,905.64,3781.75,868.15,3744.79,868.15z"/>
		<path class="st0" d="M4008.18,1095.2h-126.2v-23.23c26.93,0,30.1-1.05,30.1-10.56V907.22c0-11.09-3.16-14.26-12.14-19.01
			l-20.59-10.03v-14.26l86.6-25.34h12.14v48.05c16.9-21.13,49.11-48.05,88.18-48.05c49.64,0,73.93,38.02,73.93,85.01v137.82
			c0,9.5,2.64,10.56,30.1,10.56v23.23h-126.2v-23.23c26.93,0,29.57-1.05,29.57-10.56V935.74c0-33.27-13.2-53.33-42.77-53.33
			c-20.06,0-39.6,10.56-52.8,24.29v154.71c0,9.5,3.17,10.56,30.1,10.56V1095.2z"/>
		<path class="st0" d="M1541.95,249.61v-24.29h129.9v24.29c-42.77,0-48.05,2.64-48.05,14.78v183.23
			c0,83.43-61.25,131.48-134.12,131.48c-86.6,0-144.15-48.05-144.15-130.42V264.4c0-12.15-5.28-14.78-45.41-14.78v-24.29h161.05
			v24.29c-39.6,0-44.88,2.64-44.88,14.78v177.42c0,70.22,31.69,100.86,86.07,100.86c53.86,0,87.65-35.91,87.65-100.86V264.4
			C1590.01,252.25,1585.25,249.61,1541.95,249.61z"/>
		<path class="st0" d="M1796.1,573.83h-126.2v-23.23c26.93,0,30.1-1.05,30.1-10.56V385.85c0-11.09-3.17-14.26-12.14-19.01
			l-20.6-10.03v-14.26l86.6-25.34H1766v48.05c16.9-21.13,49.11-48.05,88.18-48.05c49.63,0,73.92,38.02,73.92,85.01v137.82
			c0,9.5,2.64,10.56,30.1,10.56v23.23H1832v-23.23c26.93,0,29.57-1.05,29.57-10.56V414.36c0-33.27-13.2-53.33-42.77-53.33
			c-20.06,0-39.6,10.56-52.8,24.29v154.71c0,9.5,3.17,10.56,30.1,10.56V573.83z"/>
		<path class="st0" d="M2002.93,366.84l-20.6-10.03v-14.26l86.6-25.34h12.14v222.83c0,9.5,3.17,10.56,30.1,10.56v23.23h-126.2
			v-23.23c26.93,0,30.1-1.05,30.1-10.56V385.85C2015.08,374.76,2011.91,371.59,2002.93,366.84z M2047.81,191
			c23.23,0,41.19,17.95,41.19,41.71s-17.95,41.72-41.19,41.72c-23.76,0-41.71-17.96-41.71-41.72S2024.06,191,2047.81,191z"/>
		<path class="st0" d="M2394.02,322.48v23.23c-21.12,0.53-23.76,1.05-27.99,12.14l-93.46,218.61h-35.38l-92.94-218.61
			c-4.75-11.09-7.39-11.61-28.51-12.14v-23.23h132.54v23.23c-25.88,0.53-31.69,1.05-31.69,7.39c0,3.17,1.05,6.87,2.64,10.56
			l52.28,140.46h2.11l57.03-140.46c1.58-3.69,2.64-7.39,2.64-10.56c0-6.33-5.81-6.86-31.68-7.39v-23.23H2394.02z"/>
		<path class="st0" d="M2512.91,579.11c-65.48,0-124.09-47.52-124.09-126.73c0-76.04,55.97-135.18,125.14-135.18
			c70.76,0,105.08,51.75,105.08,114.59v14.26H2454.3c2.11,60.19,33.26,93.46,77.09,93.46c28.51,0,46.47-11.62,66.01-39.07
			l21.65,15.84C2598.97,555.87,2559.37,579.11,2512.91,579.11z M2455.35,419.64h100.86c0-39.6-10.03-72.34-44.36-72.34
			C2481.22,347.3,2460.1,373.71,2455.35,419.64z"/>
		<path class="st0" d="M2788.26,573.83h-142.05v-23.23c26.93,0,30.1-1.05,30.1-10.56V385.85c0-11.09-3.16-14.26-12.14-19.01
			l-20.59-10.03v-14.26l86.6-25.34h12.14v69.7c16.9-28.51,48.05-69.7,78.15-69.7c25.35,0,40.14,16.89,40.14,39.6
			c0,22.71-17.43,35.38-33.27,35.38c-20.6,0-25.35-18.48-38.55-18.48c-13.2,0.53-34.32,21.12-46.47,40.13v125.67
			c0,10.03,4.23,11.09,45.94,11.09V573.83z"/>
		<path class="st0" d="M2940.68,379.51c0,53.33,137.29,20.59,137.29,114.58c0,51.75-50.69,85.02-108.77,85.02
			c-36.97,0-66.01-10.03-88.71-23.23l-5.81-66.53h23.23c13.73,47.52,40.66,61.78,74.98,61.78c24.82,0,47.52-12.67,47.52-35.9
			c0-59.14-136.76-22.18-136.76-116.17c0-45.42,42.24-81.85,100.33-81.85c29.57,0,53.86,7.39,76.03,19.01v62.31h-21.12
			c-7.4-34.86-26.41-53.33-58.08-53.33C2958.1,345.19,2940.68,357.86,2940.68,379.51z"/>
		<path class="st0" d="M3128.51,366.84l-20.59-10.03v-14.26l86.6-25.34h12.14v222.83c0,9.5,3.17,10.56,30.1,10.56v23.23h-126.2
			v-23.23c26.93,0,30.1-1.05,30.1-10.56V385.85C3140.65,374.76,3137.49,371.59,3128.51,366.84z M3173.39,191
			c23.24,0,41.19,17.95,41.19,41.71s-17.96,41.72-41.19,41.72c-23.76,0-41.71-17.96-41.71-41.72S3149.63,191,3173.39,191z"/>
		<path class="st0" d="M3906.15,317.2c70.23,0,127.26,53.86,127.26,130.95s-57.03,130.95-127.26,130.95
			c-69.7,0-126.73-53.86-126.73-130.95S3836.45,317.2,3906.15,317.2z M3906.15,346.77c-36.43,0-56.5,37.49-56.5,101.38
			c0,64.42,20.07,101.38,56.5,101.38c36.96,0,57.03-36.96,57.03-101.38C3963.18,384.26,3943.11,346.77,3906.15,346.77z"/>
		<path class="st0" d="M4195.06,573.83h-142.05v-23.23c26.93,0,30.1-1.05,30.1-10.56V351.52h-36.44v-29.04h36.44V307.7
			c0-71.29,56.49-129.9,129.9-129.9c33.79,0,57.55,13.2,57.55,35.9c0,20.6-15.84,28.51-29.57,28.51
			c-28.51,0-32.73-33.27-53.86-33.27c-18.48,0-38.02,19.01-38.02,60.2v53.33h59.15v29.04h-59.15v187.98
			c0,10.03,4.23,11.09,45.94,11.09V573.83z"/>
		<path class="st0" d="M3353.76,579.11c-42.24,0-73.4-24.29-73.4-63.89V345.7h-33.79v-23.22h33.79v-64.42l66.01-19.54v83.95h72.26
			v23.22h-72.26V503.6c0,24.29,13.2,36.44,34.85,36.44c16.37,0,29.57-7.92,44.89-24.29l16.89,19.54
			C3419.76,562.74,3391.24,579.11,3353.76,579.11z"/>
		<path class="st0" d="M3589.52,1061.32c-8.98-4.23-12.15-7.92-12.15-19.01V692.82h-15.66c-20.85,16.28-43.84,24.67-68.96,24.67
			c-4.84,0-9.53-0.44-14.12-1.12v18.01l20.06,10.03c9.5,4.23,12.14,7.92,12.14,19.01v97.78c-12.67-12.15-32.73-22.71-57.56-22.71
			c-67.05,0-123.03,56.5-123.03,140.46c0,67.59,42.24,121.45,100.86,121.45c38.55,0,68.12-27.46,79.73-46.47v46.47h12.68
			l86.07-14.78v-14.26L3589.52,1061.32z M3510.84,1032.28c-11.09,14.26-27.45,25.87-49.63,25.87c-38.55,0-64.42-40.13-64.42-92.93
			c0-59.14,27.45-97.16,65.47-97.16c19.54,0,37.49,8.45,48.58,26.93V1032.28z"/>
	</g>
	<path class="st0" d="M506.89,273.5c-7.96,3.96-13.2,11.46-14.09,18.96c5.5,4.32,13.93,5.02,21.88,1.07
		c7.95-3.95,13.21-11.45,14.11-18.95C523.3,270.24,514.85,269.54,506.89,273.5z"/>
</g>
</svg>
